<?xml version="1.0" encoding="UTF-8"?>
<svg width="261px" height="129px" viewBox="0 0 261 129" version="1.1" xmlns="http://www.w3.org/2000/svg" xmlns:xlink="http://www.w3.org/1999/xlink">
    <!-- Generator: Sketch 51.2 (57519) - http://www.bohemiancoding.com/sketch -->
    <title>LOGO</title>
    <desc>Created with Sketch.</desc>
    <defs></defs>
    <g id="Page-1" stroke="none" stroke-width="1" fill="none" fill-rule="evenodd">
        <g id="VDB_LOGO_FAMILY" transform="translate(-82.000000, -56.000000)">
            <g id="LOGO" transform="translate(82.000000, 56.000000)">
                <path d="M150.673843,34.2900937 L151.06707,35.6604299 L151.138565,35.6604299 L151.531792,34.2900937 L156.012196,21.254026 L158.550297,21.254026 L152.103759,38.6036737 L150.08996,38.6036737 L143.643422,21.254026 L146.193439,21.254026 L150.673843,34.2900937 Z M163.505843,38.6036737 L161.146482,38.6036737 L161.146482,21.254026 L163.505843,21.254026 L163.505843,38.6036737 Z M170.344112,31.0846986 L170.344112,38.6036737 L167.996667,38.6036737 L167.996667,21.265942 L174.276381,21.265942 C176.175002,21.265942 177.624763,21.6869686 178.625709,22.5290345 C179.626655,23.3711003 180.127121,24.5944607 180.127121,26.1991522 C180.127121,27.0888822 179.894762,27.8634123 179.430037,28.5227658 C178.965312,29.1821192 178.288095,29.7064165 177.398365,30.0956734 C178.351647,30.4054901 179.036808,30.9079416 179.453869,31.6030432 C179.87093,32.2981447 180.079457,33.1580717 180.079457,34.18285 L180.079457,35.8153375 C180.079457,36.3555306 180.139036,36.8401085 180.258197,37.2690854 C180.377357,37.6980623 180.583898,38.0475939 180.877827,38.3176905 L180.877827,38.6036737 L178.458886,38.6036737 C178.149069,38.3335771 177.950472,37.9363822 177.863087,37.412077 C177.775703,36.8877718 177.732012,36.3475867 177.732012,35.7915055 L177.732012,34.2066819 C177.732012,33.2692879 177.457947,32.5146175 176.90981,31.9426482 C176.361673,31.370679 175.626862,31.0846986 174.705356,31.0846986 L170.344112,31.0846986 Z M170.344112,29.2377238 L174.038062,29.2377238 C175.364713,29.2377238 176.319967,28.985505 176.903852,28.4810599 C177.487737,27.9766148 177.779676,27.2080426 177.779676,26.1753203 C177.779676,25.1982061 177.495681,24.4415498 176.927684,23.9053286 C176.359687,23.3691075 175.475928,23.1010009 174.276381,23.1010009 L170.344112,23.1010009 L170.344112,29.2377238 Z M194.443107,23.1010009 L188.866435,23.1010009 L188.866435,38.6036737 L186.51899,38.6036737 L186.51899,23.1010009 L180.954233,23.1010009 L180.954233,21.254026 L194.443107,21.254026 L194.443107,23.1010009 Z M209.741713,21.254026 L209.741713,33.0150853 C209.741713,34.9057614 209.128047,36.351551 207.900696,37.3524972 C206.673345,38.3534434 205.070664,38.853909 203.092604,38.853909 C201.186039,38.853909 199.638965,38.3514574 198.451334,37.3465392 C197.263704,36.341621 196.669897,34.8978174 196.669897,33.0150853 L196.669897,21.254026 L199.017343,21.254026 L199.017343,33.0150853 C199.017343,34.3258482 199.390706,35.3208214 200.137444,36.0000349 C200.884181,36.6792484 201.869225,37.0188501 203.092604,37.0188501 C204.379534,37.0188501 205.418199,36.6792484 206.208629,36.0000349 C206.999059,35.3208214 207.394268,34.3258482 207.394268,33.0150853 L207.394268,21.254026 L209.741713,21.254026 Z M222.519758,34.1351861 L215.251018,34.1351861 L213.606615,38.6036737 L211.211505,38.6036737 L217.920195,21.254026 L219.933993,21.254026 L226.535439,38.6036737 L224.140329,38.6036737 L222.519758,34.1351861 Z M215.977892,32.1690516 L221.816716,32.1690516 L218.956884,24.2687656 L218.885388,24.2687656 L215.977892,32.1690516 Z M231.336078,36.7686148 L239.546179,36.7686148 L239.546179,38.6036737 L228.988632,38.6036737 L228.988632,21.254026 L231.336078,21.254026 L231.336078,36.7686148 Z" id="VIRTUAL" fill="#000000"></path>
                <path d="M145.526145,66.4973314 L145.526145,49.1476837 L150.852582,49.1476837 C153.124571,49.1476837 154.947696,49.8447608 156.322011,51.2389359 C157.696326,52.633111 158.383473,54.43439 158.383473,56.6428268 L158.383473,59.0141042 C158.383473,61.2304851 157.696326,63.0317641 156.322011,64.4179952 C154.947696,65.8042262 153.124571,66.4973314 150.852582,66.4973314 L145.526145,66.4973314 Z M147.873591,50.9946586 L147.873591,64.6622725 L150.852582,64.6622725 C152.457274,64.6622725 153.72234,64.1340032 154.647818,63.0774489 C155.573296,62.0208946 156.036028,60.6664599 156.036028,59.0141042 L156.036028,56.6189949 C156.036028,54.9825273 155.573296,53.6360365 154.647818,52.5794822 C153.72234,51.5229278 152.457274,50.9946586 150.852582,50.9946586 L147.873591,50.9946586 Z M164.149305,66.4973314 L161.789944,66.4973314 L161.789944,49.1476837 L164.149305,49.1476837 L164.149305,66.4973314 Z M178.463747,62.0288438 L171.195008,62.0288438 L169.550604,66.4973314 L167.155495,66.4973314 L173.864184,49.1476837 L175.877983,49.1476837 L182.479428,66.4973314 L180.084319,66.4973314 L178.463747,62.0288438 Z M171.921882,60.0627093 L177.760705,60.0627093 L174.900873,52.1624233 L174.829378,52.1624233 L171.921882,60.0627093 Z M187.935445,49.1476837 L193.464454,63.2442724 L193.53595,63.2442724 L199.064958,49.1476837 L202.067782,49.1476837 L202.067782,66.4973314 L199.720336,66.4973314 L199.720336,59.6337345 L199.958656,52.5794822 L199.899076,52.5675662 L194.27474,66.4973314 L192.713748,66.4973314 L187.113244,52.6033141 L187.053664,52.6152301 L187.280067,59.6337345 L187.280067,66.4973314 L184.932622,66.4973314 L184.932622,49.1476837 L187.935445,49.1476837 Z M219.570841,59.3715832 C219.570841,61.4926359 218.913484,63.2522094 217.598749,64.6503565 C216.284014,66.0485036 214.578062,66.7475667 212.480841,66.7475667 C210.455117,66.7475667 208.808744,66.0485036 207.541673,64.6503565 C206.274602,63.2522094 205.641076,61.4926359 205.641076,59.3715832 L205.641076,56.2853478 C205.641076,54.1722392 206.274602,52.4126657 207.541673,51.0065745 C208.808744,49.6004834 210.455117,48.8974484 212.480841,48.8974484 C214.578062,48.8974484 216.284014,49.5984975 217.598749,51.0006166 C218.913484,52.4027357 219.570841,54.1642951 219.570841,56.2853478 L219.570841,59.3715832 Z M217.223396,56.2615159 C217.223396,54.6727124 216.794425,53.369913 215.936471,52.3530788 C215.078518,51.3362445 213.926652,50.827835 212.480841,50.827835 C211.11447,50.827835 210.02417,51.3362445 209.209908,52.3530788 C208.395646,53.369913 207.988522,54.6727124 207.988522,56.2615159 L207.988522,59.3715832 C207.988522,60.9762748 208.395646,62.287018 209.209908,63.3038523 C210.02417,64.3206865 211.11447,64.829096 212.480841,64.829096 C213.934596,64.829096 215.088448,64.3226725 215.942429,63.3098103 C216.796411,62.296948 217.223396,60.9842188 217.223396,59.3715832 L217.223396,56.2615159 Z M236.263615,66.4973314 L233.91617,66.4973314 L225.563077,53.0799528 L225.491581,53.1037847 L225.491581,66.4973314 L223.144136,66.4973314 L223.144136,49.1476837 L225.491581,49.1476837 L233.844674,62.5412304 L233.91617,62.5173985 L233.91617,49.1476837 L236.263615,49.1476837 L236.263615,66.4973314 Z M240.623363,66.4973314 L240.623363,49.1476837 L245.9498,49.1476837 C248.221789,49.1476837 250.044914,49.8447608 251.419229,51.2389359 C252.793544,52.633111 253.480691,54.43439 253.480691,56.6428268 L253.480691,59.0141042 C253.480691,61.2304851 252.793544,63.0317641 251.419229,64.4179952 C250.044914,65.8042262 248.221789,66.4973314 245.9498,66.4973314 L240.623363,66.4973314 Z M242.970808,50.9946586 L242.970808,64.6622725 L245.9498,64.6622725 C247.554492,64.6622725 248.819558,64.1340032 249.745036,63.0774489 C250.670514,62.0208946 251.133246,60.6664599 251.133246,59.0141042 L251.133246,56.6189949 C251.133246,54.9825273 250.670514,53.6360365 249.745036,52.5794822 C248.819558,51.5229278 247.554492,50.9946586 245.9498,50.9946586 L242.970808,50.9946586 Z" id="DIAMOND" fill="#000000"></path>
                <path d="M145.526145,94.3909891 L145.526145,77.0413414 L151.186229,77.0413414 C152.997465,77.0413414 154.415451,77.4325784 155.440229,78.2150642 C156.465008,78.9975499 156.977389,80.1712609 156.977389,81.7362323 C156.977389,82.506802 156.731128,83.1959352 156.238599,83.8036526 C155.74607,84.4113699 155.098642,84.8621862 154.296297,85.1561148 C155.344907,85.3785473 156.169086,85.8909288 156.76886,86.6932745 C157.368633,87.4956203 157.668515,88.4290284 157.668515,89.4935267 C157.668515,91.0823302 157.154148,92.2957607 156.125398,93.1338546 C155.096647,93.9719484 153.700507,94.3909891 151.936935,94.3909891 L145.526145,94.3909891 Z M147.873591,86.2523838 L147.873591,92.5559302 L151.936935,92.5559302 C153.001434,92.5559302 153.831571,92.2917956 154.427372,91.7635184 C155.023174,91.2352412 155.32107,90.4865288 155.32107,89.5173587 C155.32107,88.5005244 155.072823,87.7021626 154.576322,87.1222493 C154.079821,86.5423361 153.315221,86.2523838 152.282498,86.2523838 L147.873591,86.2523838 Z M147.873591,84.4173249 L151.674784,84.4173249 C152.548626,84.4173249 153.259605,84.1770219 153.807742,83.6964089 C154.355879,83.2157958 154.629944,82.5465224 154.629944,81.6885685 C154.629944,80.7511744 154.334034,80.0501254 153.742204,79.5854003 C153.150375,79.1206753 152.298392,78.8883163 151.186229,78.8883163 L147.873591,78.8883163 L147.873591,84.4173249 Z M174.325541,87.2652409 C174.325541,89.3862936 173.668183,91.1458671 172.353449,92.5440142 C171.038714,93.9421613 169.332761,94.6412244 167.235541,94.6412244 C165.209816,94.6412244 163.563443,93.9421613 162.296373,92.5440142 C161.029302,91.1458671 160.395776,89.3862936 160.395776,87.2652409 L160.395776,84.1790055 C160.395776,82.0658969 161.029302,80.3063234 162.296373,78.9002322 C163.563443,77.4941411 165.209816,76.7911061 167.235541,76.7911061 C169.332761,76.7911061 171.038714,77.4921552 172.353449,78.8942743 C173.668183,80.2963934 174.325541,82.0579528 174.325541,84.1790055 L174.325541,87.2652409 Z M171.978096,84.1551736 C171.978096,82.5663701 171.549125,81.2635707 170.691171,80.2467365 C169.833217,79.2299022 168.681352,78.7214927 167.235541,78.7214927 C165.86917,78.7214927 164.77887,79.2299022 163.964608,80.2467365 C163.150346,81.2635707 162.743221,82.5663701 162.743221,84.1551736 L162.743221,87.2652409 C162.743221,88.8699325 163.150346,90.1806757 163.964608,91.19751 C164.77887,92.2143442 165.86917,92.7227537 167.235541,92.7227537 C168.689296,92.7227537 169.843147,92.2163302 170.697129,91.203468 C171.551111,90.1906057 171.978096,88.8778765 171.978096,87.2652409 L171.978096,84.1551736 Z M190.577424,77.0413414 L190.577424,88.8024007 C190.577424,90.6930768 189.963758,92.1388664 188.736407,93.1398126 C187.509056,94.1407588 185.906375,94.6412244 183.928315,94.6412244 C182.02175,94.6412244 180.474676,94.1387728 179.287045,93.1338546 C178.099415,92.1289364 177.505608,90.6851328 177.505608,88.8024007 L177.505608,77.0413414 L179.853054,77.0413414 L179.853054,88.8024007 C179.853054,90.1131636 180.226417,91.1081368 180.973155,91.7873503 C181.719892,92.4665638 182.704936,92.8061655 183.928315,92.8061655 C185.215245,92.8061655 186.25391,92.4665638 187.04434,91.7873503 C187.83477,91.1081368 188.229979,90.1131636 188.229979,88.8024007 L188.229979,77.0413414 L190.577424,77.0413414 Z M206.233509,78.8883163 L200.656836,78.8883163 L200.656836,94.3909891 L198.309391,94.3909891 L198.309391,78.8883163 L192.744634,78.8883163 L192.744634,77.0413414 L206.233509,77.0413414 L206.233509,78.8883163 Z M211.332047,94.3909891 L208.972685,94.3909891 L208.972685,77.0413414 L211.332047,77.0413414 L211.332047,94.3909891 Z M228.954266,87.2652409 C228.954266,88.3932914 228.755668,89.4379141 228.358467,90.3991402 C227.961266,91.3603663 227.405194,92.1746159 226.690232,92.8419134 L229.633476,95.6183337 L228.02482,97.1554934 L224.736013,94.0930899 C224.291148,94.2758023 223.828416,94.4128346 223.347803,94.5041908 C222.86719,94.595547 222.372683,94.6412244 221.864265,94.6412244 C219.838541,94.6412244 218.192168,93.9421613 216.925097,92.5440142 C215.658026,91.1458671 215.0245,89.3862936 215.0245,87.2652409 L215.0245,84.1790055 C215.0245,82.0658969 215.658026,80.3063234 216.925097,78.9002322 C218.192168,77.4941411 219.838541,76.7911061 221.864265,76.7911061 C223.961486,76.7911061 225.667438,77.4921552 226.982173,78.8942743 C228.296908,80.2963934 228.954266,82.0579528 228.954266,84.1790055 L228.954266,87.2652409 Z M226.60682,84.1551736 C226.60682,82.5663701 226.17785,81.2635707 225.319896,80.2467365 C224.461942,79.2299022 223.310077,78.7214927 221.864265,78.7214927 C220.497894,78.7214927 219.407594,79.2299022 218.593333,80.2467365 C217.779071,81.2635707 217.371946,82.5663701 217.371946,84.1551736 L217.371946,87.2652409 C217.371946,88.8699325 217.779071,90.1806757 218.593333,91.19751 C219.407594,92.2143442 220.497894,92.7227537 221.864265,92.7227537 C223.318021,92.7227537 224.471872,92.2163302 225.325854,91.203468 C226.179836,90.1906057 226.60682,88.8778765 226.60682,87.2652409 L226.60682,84.1551736 Z M245.206149,77.0413414 L245.206149,88.8024007 C245.206149,90.6930768 244.592482,92.1388664 243.365132,93.1398126 C242.137781,94.1407588 240.535099,94.6412244 238.557039,94.6412244 C236.650475,94.6412244 235.103401,94.1387728 233.91577,93.1338546 C232.728139,92.1289364 232.134333,90.6851328 232.134333,88.8024007 L232.134333,77.0413414 L234.481778,77.0413414 L234.481778,88.8024007 C234.481778,90.1131636 234.855142,91.1081368 235.601879,91.7873503 C236.348617,92.4665638 237.33366,92.8061655 238.557039,92.8061655 C239.84397,92.8061655 240.882635,92.4665638 241.673064,91.7873503 C242.463494,91.1081368 242.858703,90.1131636 242.858703,88.8024007 L242.858703,77.0413414 L245.206149,77.0413414 Z M259.408485,86.3477115 L251.460535,86.3477115 L251.460535,92.5559302 L260.623914,92.5559302 L260.623914,94.3909891 L249.11309,94.3909891 L249.11309,77.0413414 L260.492838,77.0413414 L260.492838,78.8883163 L251.460535,78.8883163 L251.460535,84.5007366 L259.408485,84.5007366 L259.408485,86.3477115 Z" id="BOUTIQUE" fill="#000000"></path>
                <path d="M105.5234,64.8932 C105.5234,87.8452 86.9884,106.4522 64.1204,106.4522 C41.2564,106.4522 22.7124,87.8452 22.7124,64.8932 C22.7124,41.9452 41.2564,23.3392 64.1204,23.3392 C86.9884,23.3392 105.5234,41.9452 105.5234,64.8932" id="Fill-103" fill="#733D80"></path>
                <path d="M79.7343,77.9913 C81.0033,76.8423 81.6343,75.3443 81.6343,73.5073 C81.6343,72.4993 81.4163,71.5673 80.9743,70.7093 C80.5333,69.8493 79.9153,69.1493 79.1223,68.6093 C78.5623,68.2283 77.8963,67.9433 77.1223,67.7713 C76.3513,67.5973 75.3533,67.5113 74.1353,67.5113 C74.0003,67.5113 73.7933,67.5193 73.4953,67.5293 C73.2043,67.5433 72.9733,67.5453 72.8103,67.5453 L70.9393,67.5453 C70.9023,67.5623 70.8653,67.5843 70.8343,67.6023 L70.8343,75.1453 C70.8343,76.9243 71.1153,78.1293 71.6833,78.7693 C72.2523,79.4033 73.2923,79.7183 74.7993,79.7183 C76.8193,79.7183 78.4643,79.1433 79.7343,77.9913 Z M59.4213,69.1683 L53.5093,69.1683 L56.4643,76.6643 L59.4213,69.1683 Z M73.6373,57.9073 L73.6373,57.8783 C73.6373,57.6573 73.6343,57.4413 73.6283,57.2313 C73.6103,57.0143 73.5893,56.7933 73.5523,56.5713 C73.6103,57.0153 73.6373,57.4623 73.6373,57.9073 Z M72.5203,53.8863 C72.0483,52.7933 71.3933,51.8073 70.5713,50.9383 L70.4443,54.7303 L72.5203,53.8863 Z M73.3453,57.5643 C73.3123,56.3943 73.0743,55.2423 72.6293,54.1443 L70.5563,54.9893 L73.3453,57.5643 Z M63.3563,68.0403 C64.5453,68.0053 65.7183,67.7643 66.8343,67.3303 L65.9773,65.3063 L63.3563,68.0403 Z M63.0203,67.9893 L65.7763,65.1043 L63.0003,63.9703 L60.2283,65.1023 L63.0203,67.9893 Z M59.3743,66.8713 C59.4843,67.1583 59.6363,67.3893 59.8443,67.5623 C60.7613,67.8533 61.7133,68.0143 62.6813,68.0463 L60.0303,65.3023 L59.3743,66.8713 Z M59.2013,50.8483 L59.2013,52.2363 L59.7813,50.8733 L59.2013,50.8483 Z M59.2013,49.2343 L59.2013,50.5743 L59.7793,50.5933 L59.2013,49.2343 Z M63.0203,47.7923 L63.0043,47.7923 L60.2423,50.6893 L63.0163,51.8093 L65.7863,50.6823 L63.0203,47.7923 Z M66.8493,48.4343 C66.7463,48.3943 66.6383,48.3633 66.5353,48.3193 C66.2693,48.2443 66.0003,48.1793 65.7183,48.1163 C65.0093,47.9703 64.2423,47.8693 63.4323,47.8163 L65.9773,50.4863 L66.8493,48.4343 Z M63.3723,63.8213 L65.9453,64.8683 L67.0133,62.3383 L63.3723,63.8213 Z M65.9513,50.9183 L63.3833,51.9583 L67.0133,53.4493 L65.9513,50.9183 Z M69.0483,58.2703 L67.5433,61.8233 L70.1033,60.7803 L69.0483,58.2703 Z M69.0483,57.5443 L70.1103,55.0173 L67.5433,53.9623 L69.0483,57.5443 Z M70.1033,50.4753 C69.2283,49.6613 68.2183,49.0133 67.1113,48.5463 L66.2403,50.5933 L70.1033,50.4753 Z M66.2333,50.8733 L67.3873,53.6013 L70.1633,54.7333 L70.2963,50.7543 L66.2333,50.8733 Z M63.0003,63.6693 L67.1643,61.9733 L68.8973,57.9073 L67.1643,53.8143 L63.0163,52.1133 L59.2013,53.6623 L59.2013,62.1253 L63.0003,63.6693 Z M60.0593,64.8633 L62.6353,63.8213 L59.2013,62.4273 L59.2013,62.8373 L60.0593,64.8633 Z M59.2013,64.9263 L59.7713,64.9073 L59.2013,63.5553 L59.2013,64.9263 Z M59.2013,53.3623 L62.6393,51.9583 L60.0693,50.9193 L59.2013,52.9613 L59.2013,53.3623 Z M66.2383,65.1973 L67.0883,67.2203 C68.1963,66.7603 69.1983,66.1133 70.0753,65.3063 L66.2383,65.1973 Z M70.2733,65.0343 L70.1533,61.0583 L67.3823,62.1883 L66.2333,64.9203 L70.2733,65.0343 Z M73.2993,57.9043 L70.3493,55.1793 L69.2013,57.9073 L70.3413,60.6173 L73.2993,57.9043 Z M70.4363,61.0663 L70.5503,64.8373 C71.3673,63.9813 72.0263,63.0013 72.5033,61.9133 L70.4363,61.0663 Z M72.6103,61.6583 C73.0543,60.5603 73.3073,59.4123 73.3453,58.2423 L70.5483,60.8083 L72.6103,61.6583 Z M59.2013,48.5003 L60.0373,50.4863 L62.6353,47.7713 C62.4333,47.7673 62.2323,47.7623 62.0263,47.7593 C61.0613,47.8543 60.1153,48.0713 59.2013,48.4303 L59.2013,48.5003 Z M59.2013,65.7413 C59.2013,65.9883 59.2223,66.2123 59.2603,66.4203 L59.7743,65.1853 L59.2013,65.2003 L59.2013,65.7413 Z M75.9703,62.5163 C75.2363,63.9953 74.1353,65.3023 72.6913,66.4203 L75.6413,66.3923 C77.2593,66.3923 78.4883,66.0213 79.3323,65.2773 C80.1733,64.5333 80.5963,63.4463 80.5963,62.0133 C80.5963,60.3023 80.1173,59.0493 79.1623,58.2703 C78.6433,57.8463 77.9423,57.5503 77.0833,57.3583 C77.0833,57.4413 77.0873,57.5173 77.0873,57.6023 C77.0873,59.3913 76.7143,61.0303 75.9703,62.5163 Z M83.8183,69.5273 C84.8633,70.6213 85.3883,71.9913 85.3883,73.6323 C85.3883,74.8593 85.0693,75.9893 84.4423,77.0293 C83.8183,78.0673 82.9293,78.9143 81.7773,79.5593 C80.9933,80.0043 80.0103,80.3253 78.8383,80.5223 C77.6633,80.7243 76.0623,80.8223 74.0293,80.8223 L63.9243,80.8223 L63.9243,79.9763 L64.3213,79.9763 C65.4083,79.9763 66.1953,79.7553 66.6813,79.3063 C67.1643,78.8653 67.4043,78.1363 67.4043,77.1283 L67.4533,68.7673 C66.0963,69.0323 64.4763,69.1683 62.5863,69.1683 L61.2613,69.1683 L56.6373,80.9343 L54.6503,80.9343 L46.5963,60.3143 C46.0233,58.8893 45.5103,58.0003 45.0613,57.6393 C44.6083,57.2783 43.9773,57.1033 43.1643,57.1033 L42.8513,57.1033 L42.8513,56.2743 L53.4063,56.2743 L53.4063,57.1033 C51.9963,57.1033 51.0133,57.2233 50.4563,57.4623 C49.9003,57.7063 49.6243,58.1163 49.6243,58.6913 C49.6243,58.8893 49.6543,59.1163 49.7093,59.3733 C49.7693,59.6243 49.8713,59.9283 50.0083,60.2793 L53.2263,68.4433 L53.3863,68.4433 C54.3583,68.4433 55.0623,68.2403 55.4933,67.8393 C55.9313,67.4393 56.1443,66.7823 56.1443,65.8683 L56.1443,50.5233 C56.1443,49.6103 55.9313,48.9583 55.4933,48.5553 C55.0623,48.1493 54.3583,47.9523 53.3863,47.9523 L53.0363,47.9523 L53.0363,47.1933 C55.8213,47.0653 57.9373,46.9733 59.3733,46.9153 C60.8113,46.8523 61.8313,46.8263 62.4403,46.8263 C65.0483,46.8263 67.1393,47.0053 68.7203,47.3643 C70.3023,47.7233 71.6633,48.3073 72.8103,49.1113 C74.1753,50.0613 75.2263,51.2813 75.9703,52.7533 C76.5063,53.8263 76.8513,54.9623 76.9953,56.1793 C78.9763,56.3633 80.5543,56.7933 81.7263,57.4773 C83.3273,58.4123 84.1323,59.7893 84.1323,61.6013 C84.1323,62.8873 83.6863,63.9713 82.8033,64.8533 C81.9163,65.7363 80.6203,66.4013 78.9113,66.8453 C81.1373,67.5433 82.7653,68.4353 83.8183,69.5273 Z" id="Fill-105" fill="#FFFFFE"></path>
                <path d="M62.5351,16.4142 L62.5351,0.8442 C28.4081,1.6712 0.8961,29.1852 0.0661,63.3102 L15.6391,63.3102 C16.4581,37.7752 37.0001,17.2342 62.5351,16.4142" id="Fill-107" fill="#733D80"></path>
                <path d="M112.6006,63.3107 L128.1716,63.3107 C127.3426,29.1857 99.8306,1.6717 65.7046,0.8447 L65.7046,16.4147 C91.2396,17.2347 111.7806,37.7757 112.6006,63.3107" id="Fill-109" fill="#4666A2"></path>
                <path d="M65.7041,113.3771 L65.7041,128.9471 C99.8311,128.1191 127.3431,100.6061 128.1721,66.4791 L112.6001,66.4791 C111.7801,92.0151 91.2391,112.5561 65.7041,113.3771" id="Fill-111" fill="#5BB19A"></path>
                <path d="M15.6386,66.4786 L0.0666,66.4786 C0.8966,100.6066 28.4086,128.1196 62.5346,128.9476 L62.5346,113.3766 C36.9996,112.5556 16.4576,92.0146 15.6386,66.4786" id="Fill-113" fill="#BF234C"></path>
                <path d="M162.3447,119.1105 C162.3447,124.0385 158.3497,128.0335 153.4217,128.0335 C148.4937,128.0335 144.4997,124.0385 144.4997,119.1105 C144.4997,114.1825 148.4937,110.1885 153.4217,110.1885 C158.3497,110.1885 162.3447,114.1825 162.3447,119.1105" id="Fill-115" fill="#733D80"></path>
                <path d="M193.7675,119.1105 C193.7675,124.0385 189.7735,128.0335 184.8455,128.0335 C179.9175,128.0335 175.9225,124.0385 175.9225,119.1105 C175.9225,114.1825 179.9175,110.1885 184.8455,110.1885 C189.7735,110.1885 193.7675,114.1825 193.7675,119.1105" id="Fill-117" fill="#4666A2"></path>
                <path d="M225.1914,119.1105 C225.1914,124.0385 221.1994,128.0335 216.2694,128.0335 C211.3414,128.0335 207.3454,124.0385 207.3454,119.1105 C207.3454,114.1825 211.3414,110.1885 216.2694,110.1885 C221.1994,110.1885 225.1914,114.1825 225.1914,119.1105" id="Fill-119" fill="#5BB19A"></path>
                <path d="M256.6172,119.1105 C256.6172,124.0385 252.6222,128.0335 247.6942,128.0335 C242.7642,128.0335 238.7702,124.0385 238.7702,119.1105 C238.7702,114.1825 242.7642,110.1885 247.6942,110.1885 C252.6222,110.1885 256.6172,114.1825 256.6172,119.1105" id="Fill-121" fill="#BF234C"></path>
            </g>
        </g>
    </g>
</svg>